<svg xmlns="http://www.w3.org/2000/svg" width="255" height="68" viewBox="0 0 255 68" fill="none">
<path d="M43.4466 3.28293C40.2655 1.09608 36.1145 0 30.9936 0H11.168C9.5981 0 8.73078 0.785129 8.56603 2.35388L0.512096 52.9094C0.428395 53.4059 0.552621 53.86 0.883641 54.2729C1.21277 54.6864 1.62673 54.8921 2.1225 54.8921H11.5395C13.1912 54.8921 14.0991 54.1089 14.2657 52.5382L16.4957 38.9088C16.5772 38.2483 16.8677 37.7113 17.3634 37.2977C17.8588 36.8848 18.4784 36.6148 19.2219 36.491C19.9654 36.3682 20.6664 36.3065 21.3285 36.3065C21.9886 36.3065 22.773 36.3482 23.6831 36.4304C24.5909 36.5129 25.1697 36.5531 25.4177 36.5531C32.5214 36.5531 38.0972 34.5514 42.1456 30.544C46.1921 26.538 48.2176 20.9834 48.2176 13.8778C48.2176 9.00457 46.6261 5.47319 43.4466 3.28293ZM33.2244 18.4629C32.81 21.3546 31.7374 23.2536 30.0028 24.1625C28.2678 25.0727 25.7897 25.5253 22.5685 25.5253L18.4792 25.6491L20.5861 12.3905C20.7505 11.4827 21.2872 11.0282 22.1965 11.0282H24.5516C27.8542 11.0282 30.2512 11.5043 31.7382 12.4526C33.2244 13.4033 33.7201 15.4072 33.2244 18.4629Z" fill="#003087"/>
<path d="M252.669 0H243.5C242.589 0 242.053 0.454492 241.889 1.36347L233.835 52.9098L233.71 53.1575C233.71 53.5726 233.876 53.963 234.207 54.335C234.536 54.7061 234.95 54.8921 235.445 54.8921H243.624C245.192 54.8921 246.059 54.1089 246.227 52.5382L254.281 1.85773V1.73464C254.28 0.578338 253.742 0 252.669 0Z" fill="#009CDE"/>
<path d="M141.893 19.9487C141.893 19.5366 141.727 19.1435 141.398 18.7723C141.067 18.4007 140.695 18.214 140.283 18.214H130.742C129.831 18.214 129.088 18.6291 128.511 19.4529L115.377 38.7838L109.925 20.1971C109.51 18.8764 108.603 18.214 107.199 18.214H97.9046C97.4906 18.214 97.1191 18.4004 96.7907 18.7723C96.4593 19.1435 96.2949 19.537 96.2949 19.9487C96.2949 20.1153 97.1005 22.551 98.7109 27.2595C100.321 31.9691 102.056 37.0496 103.915 42.5019C105.774 47.9532 106.744 50.846 106.827 51.1744C100.052 60.427 96.6665 65.3836 96.6665 66.0434C96.6665 67.1182 97.2028 67.6545 98.2773 67.6545H107.819C108.727 67.6545 109.47 67.2425 110.049 66.416L141.646 20.816C141.811 20.652 141.893 20.3641 141.893 19.9487Z" fill="#003087"/>
<path d="M230.737 18.2141H221.32C220.163 18.2141 219.462 19.5775 219.215 22.3037C217.064 19.0007 213.143 17.3467 207.442 17.3467C201.494 17.3467 196.434 19.5775 192.263 24.0383C188.091 28.4992 186.006 33.7459 186.006 39.7754C186.006 44.6502 187.431 48.5323 190.28 51.4225C193.13 54.3157 196.951 55.7594 201.743 55.7594C204.138 55.7594 206.575 55.2629 209.053 54.2725C211.531 53.2813 213.471 51.9603 214.878 50.3075C214.878 50.3904 214.793 50.7616 214.629 51.4221C214.463 52.0841 214.381 52.5807 214.381 52.909C214.381 54.2323 214.917 54.8914 215.993 54.8914H224.543C226.11 54.8914 227.02 54.1081 227.268 52.5375L232.349 20.1968C232.43 19.701 232.306 19.2473 231.977 18.8337C231.645 18.4212 231.233 18.2141 230.737 18.2141ZM214.567 42.6251C212.461 44.6903 209.921 45.7224 206.947 45.7224C204.55 45.7224 202.611 45.0626 201.123 43.7401C199.636 42.4205 198.892 40.603 198.892 38.2881C198.892 35.2336 199.925 32.6502 201.991 30.544C204.054 28.4374 206.616 27.3841 209.673 27.3841C211.984 27.3841 213.905 28.0659 215.435 29.4282C216.962 30.7917 217.728 32.6714 217.728 35.0673C217.727 38.0408 216.674 40.5609 214.567 42.6251Z" fill="#009CDE"/>
<path d="M89.9758 18.2141H80.5584C79.4002 18.2141 78.6995 19.5775 78.4514 22.3037C76.221 19.0007 72.2969 17.3467 66.6798 17.3467C60.732 17.3467 55.6717 19.5775 51.5006 24.0383C47.3284 28.4992 45.2434 33.7459 45.2434 39.7754C45.2434 44.6502 46.6686 48.5323 49.5186 51.4225C52.3687 54.3157 56.1883 55.7594 60.9801 55.7594C63.2919 55.7594 65.689 55.2629 68.1667 54.2725C70.6448 53.2813 72.6275 51.9603 74.1145 50.3075C73.7831 51.2986 73.6187 52.1663 73.6187 52.909C73.6187 54.2323 74.1554 54.8914 75.2295 54.8914H83.7792C85.3476 54.8914 86.2573 54.1081 86.5054 52.5375L91.5854 20.1968C91.6668 19.701 91.5434 19.2473 91.2139 18.8337C90.8832 18.4212 90.4704 18.2141 89.9758 18.2141ZM73.805 42.6864C71.6981 44.7127 69.1155 45.7224 66.0609 45.7224C63.6639 45.7224 61.7433 45.0626 60.2987 43.7401C58.8523 42.4205 58.1301 40.603 58.1301 38.2881C58.1301 35.2336 59.1621 32.6502 61.2282 30.544C63.2919 28.4374 65.853 27.3841 68.9106 27.3841C71.2224 27.3841 73.143 28.0659 74.6727 29.4282C76.1998 30.7917 76.9649 32.6714 76.9649 35.0673C76.9649 38.1237 75.9116 40.6647 73.805 42.6864Z" fill="#003087"/>
<path d="M184.208 3.28293C181.028 1.09608 176.877 0 171.756 0H152.054C150.401 0 149.492 0.785129 149.328 2.35388L141.274 52.9094C141.19 53.4059 141.314 53.86 141.645 54.2729C141.973 54.6864 142.388 54.8921 142.884 54.8921H153.044C154.036 54.8921 154.696 54.3558 155.027 53.2817L157.258 38.9088C157.34 38.2483 157.629 37.7113 158.125 37.2977C158.621 36.8848 159.24 36.6148 159.984 36.491C160.727 36.3682 161.428 36.3065 162.091 36.3065C162.751 36.3065 163.535 36.3482 164.444 36.4304C165.353 36.5129 165.933 36.5531 166.179 36.5531C173.284 36.5531 178.859 34.5514 182.907 30.544C186.955 26.538 188.979 20.9834 188.979 13.8778C188.979 9.00457 187.388 5.47319 184.208 3.28293ZM171.508 23.6668C169.69 24.9056 166.964 25.5249 163.33 25.5249L159.364 25.6487L161.471 12.3901C161.635 11.4823 162.172 11.0278 163.082 11.0278H165.311C167.128 11.0278 168.574 11.1104 169.65 11.2751C170.722 11.4414 171.756 11.9565 172.747 12.8238C173.739 13.6911 174.234 14.9516 174.234 16.6033C174.234 20.0733 173.324 22.4268 171.508 23.6668Z" fill="#009CDE"/>
</svg>