<svg xmlns="http://www.w3.org/2000/svg" width="14" height="20" viewBox="0 0 14 20" fill="none">
<path d="M11.8601 11.1747C11.2487 12.5019 10.4212 13.8251 9.57338 15.0126C8.72821 16.1963 7.88016 17.221 7.2423 17.9506C7.15754 18.0475 7.0766 18.1391 7 18.2251C6.9234 18.1391 6.84246 18.0475 6.7577 17.9506C6.11984 17.221 5.27179 16.1963 4.42662 15.0126C3.5788 13.8251 2.75129 12.5019 2.13993 11.1747C1.52227 9.83384 1.16667 8.57738 1.16667 7.5C1.16667 4.04822 3.77834 1.25 7 1.25C10.2217 1.25 12.8333 4.04822 12.8333 7.5C12.8333 8.57738 12.4777 9.83384 11.8601 11.1747ZM7 20C7 20 14 12.8921 14 7.5C14 3.35786 10.866 0 7 0C3.13401 0 0 3.35786 0 7.5C0 12.8921 7 20 7 20Z" fill="white"/>
<path d="M7 10C5.71134 10 4.66667 8.88071 4.66667 7.5C4.66667 6.11929 5.71134 5 7 5C8.28866 5 9.33333 6.11929 9.33333 7.5C9.33333 8.88071 8.28866 10 7 10ZM7 11.25C8.933 11.25 10.5 9.57107 10.5 7.5C10.5 5.42893 8.933 3.75 7 3.75C5.067 3.75 3.5 5.42893 3.5 7.5C3.5 9.57107 5.067 11.25 7 11.25Z" fill="white"/>
</svg>